<svg viewBox="0 0 4064 544"  version="1.1" xmlns="http://www.w3.org/2000/svg">
<g id="qubit_lines">
<path id="qubit_line:0" d="M64,64 L4032,64 " stroke="black"/>
<text dominant-baseline="central" text-anchor="end" font-family="monospace" font-size="12" x="64" y="64">q0</text>
<path id="qubit_line:1" d="M64,128 L4032,128 " stroke="black"/>
<text dominant-baseline="central" text-anchor="end" font-family="monospace" font-size="12" x="64" y="128">q1</text>
<path id="qubit_line:2" d="M64,192 L4032,192 " stroke="black"/>
<text dominant-baseline="central" text-anchor="end" font-family="monospace" font-size="12" x="64" y="192">q2</text>
<path id="qubit_line:3" d="M64,256 L4032,256 " stroke="black"/>
<text dominant-baseline="central" text-anchor="end" font-family="monospace" font-size="12" x="64" y="256">q3</text>
<path id="qubit_line:4" d="M64,320 L4032,320 " stroke="black"/>
<text dominant-baseline="central" text-anchor="end" font-family="monospace" font-size="12" x="64" y="320">q4</text>
<path id="qubit_line:5" d="M64,384 L4032,384 " stroke="black"/>
<text dominant-baseline="central" text-anchor="end" font-family="monospace" font-size="12" x="64" y="384">q5</text>
<path id="qubit_line:6" d="M64,448 L4032,448 " stroke="black"/>
<text dominant-baseline="central" text-anchor="end" font-family="monospace" font-size="12" x="64" y="448">q6</text>
</g>
<rect x="80" y="48" width="224" height="32" stroke="black" fill="white"/>
<text dominant-baseline="central" text-anchor="middle" font-family="monospace" font-size="16" x="192" y="64">COORDS(0,0.5)</text>
<rect x="80" y="112" width="224" height="32" stroke="black" fill="white"/>
<text dominant-baseline="central" text-anchor="middle" font-family="monospace" font-size="16" x="192" y="128">COORDS(1,0.5)</text>
<rect x="80" y="176" width="224" height="32" stroke="black" fill="white"/>
<text dominant-baseline="central" text-anchor="middle" font-family="monospace" font-size="16" x="192" y="192">COORDS(0,1)</text>
<rect x="80" y="240" width="224" height="32" stroke="black" fill="white"/>
<text dominant-baseline="central" text-anchor="middle" font-family="monospace" font-size="16" x="192" y="256">COORDS(0.5,1)</text>
<rect x="80" y="304" width="224" height="32" stroke="black" fill="white"/>
<text dominant-baseline="central" text-anchor="middle" font-family="monospace" font-size="16" x="192" y="320">COORDS(1,1)</text>
<rect x="80" y="368" width="224" height="32" stroke="black" fill="white"/>
<text dominant-baseline="central" text-anchor="middle" font-family="monospace" font-size="16" x="192" y="384">COORDS(0,1.5)</text>
<rect x="80" y="432" width="224" height="32" stroke="black" fill="white"/>
<text dominant-baseline="central" text-anchor="middle" font-family="monospace" font-size="16" x="192" y="448">COORDS(1,1.5)</text>
<rect x="336" y="48" width="32" height="32" stroke="black" fill="black"/>
<text dominant-baseline="central" text-anchor="middle" font-family="monospace" font-size="30" x="352" y="64" fill="white">R</text>
<rect x="336" y="112" width="32" height="32" stroke="black" fill="black"/>
<text dominant-baseline="central" text-anchor="middle" font-family="monospace" font-size="30" x="352" y="128" fill="white">R</text>
<rect x="336" y="176" width="32" height="32" stroke="black" fill="black"/>
<text dominant-baseline="central" text-anchor="middle" font-family="monospace" font-size="30" x="352" y="192" fill="white">R</text>
<rect x="336" y="240" width="32" height="32" stroke="black" fill="black"/>
<text dominant-baseline="central" text-anchor="middle" font-family="monospace" font-size="30" x="352" y="256" fill="white">R</text>
<rect x="336" y="304" width="32" height="32" stroke="black" fill="black"/>
<text dominant-baseline="central" text-anchor="middle" font-family="monospace" font-size="30" x="352" y="320" fill="white">R</text>
<rect x="336" y="368" width="32" height="32" stroke="black" fill="black"/>
<text dominant-baseline="central" text-anchor="middle" font-family="monospace" font-size="30" x="352" y="384" fill="white">R</text>
<rect x="336" y="432" width="32" height="32" stroke="black" fill="black"/>
<text dominant-baseline="central" text-anchor="middle" font-family="monospace" font-size="30" x="352" y="448" fill="white">R</text>
<rect x="400" y="48" width="32" height="32" stroke="black" fill="white"/>
<text dominant-baseline="central" text-anchor="middle" font-family="monospace" font-size="30" x="416" y="64">H</text>
<rect x="400" y="112" width="32" height="32" stroke="black" fill="white"/>
<text dominant-baseline="central" text-anchor="middle" font-family="monospace" font-size="30" x="416" y="128">H</text>
<rect x="400" y="368" width="32" height="32" stroke="black" fill="white"/>
<text dominant-baseline="central" text-anchor="middle" font-family="monospace" font-size="30" x="416" y="384">H</text>
<rect x="400" y="432" width="32" height="32" stroke="black" fill="white"/>
<text dominant-baseline="central" text-anchor="middle" font-family="monospace" font-size="30" x="416" y="448">H</text>
<rect x="400" y="240" width="32" height="32" stroke="black" fill="white"/>
<text dominant-baseline="central" text-anchor="middle" font-family="monospace" font-size="30" x="416" y="256">H</text>
<path d="M324,40 L324,32 L444,32 L444,40 " stroke="black" fill="none"/>
<path d="M324,504 L324,512 L444,512 L444,504 " stroke="black" fill="none"/>
<path d="M480,64 L480,192 " stroke="black"/>
<circle cx="480" cy="192" r="12" stroke="none" fill="black"/>
<circle cx="480" cy="64" r="12" stroke="black" fill="white"/>
<path d="M468,64 L492,64 M480,52 L480,76 " stroke="black"/>
<path d="M544,192 L544,256 " stroke="black"/>
<circle cx="544" cy="256" r="12" stroke="none" fill="black"/>
<circle cx="544" cy="192" r="12" stroke="black" fill="white"/>
<path d="M532,192 L556,192 M544,180 L544,204 " stroke="black"/>
<path d="M608,64 L608,192 " stroke="black"/>
<circle cx="608" cy="192" r="12" stroke="none" fill="black"/>
<circle cx="608" cy="64" r="12" stroke="black" fill="white"/>
<path d="M596,64 L620,64 M608,52 L608,76 " stroke="black"/>
<path d="M672,192 L672,384 " stroke="black"/>
<circle cx="672" cy="192" r="12" stroke="none" fill="black"/>
<circle cx="672" cy="384" r="12" stroke="black" fill="white"/>
<path d="M660,384 L684,384 M672,372 L672,396 " stroke="black"/>
<path d="M736,192 L736,256 " stroke="black"/>
<circle cx="736" cy="256" r="12" stroke="none" fill="black"/>
<circle cx="736" cy="192" r="12" stroke="black" fill="white"/>
<path d="M724,192 L748,192 M736,180 L736,204 " stroke="black"/>
<path d="M800,192 L800,384 " stroke="black"/>
<circle cx="800" cy="192" r="12" stroke="none" fill="black"/>
<circle cx="800" cy="384" r="12" stroke="black" fill="white"/>
<path d="M788,384 L812,384 M800,372 L800,396 " stroke="black"/>
<path d="M864,128 L864,320 " stroke="black"/>
<circle cx="864" cy="320" r="12" stroke="none" fill="black"/>
<circle cx="864" cy="128" r="12" stroke="black" fill="white"/>
<path d="M852,128 L876,128 M864,116 L864,140 " stroke="black"/>
<path d="M928,256 L928,320 " stroke="black"/>
<circle cx="928" cy="256" r="12" stroke="none" fill="black"/>
<circle cx="928" cy="320" r="12" stroke="black" fill="white"/>
<path d="M916,320 L940,320 M928,308 L928,332 " stroke="black"/>
<path d="M992,128 L992,320 " stroke="black"/>
<circle cx="992" cy="320" r="12" stroke="none" fill="black"/>
<circle cx="992" cy="128" r="12" stroke="black" fill="white"/>
<path d="M980,128 L1004,128 M992,116 L992,140 " stroke="black"/>
<path d="M1056,320 L1056,448 " stroke="black"/>
<circle cx="1056" cy="320" r="12" stroke="none" fill="black"/>
<circle cx="1056" cy="448" r="12" stroke="black" fill="white"/>
<path d="M1044,448 L1068,448 M1056,436 L1056,460 " stroke="black"/>
<path d="M1120,256 L1120,320 " stroke="black"/>
<circle cx="1120" cy="256" r="12" stroke="none" fill="black"/>
<circle cx="1120" cy="320" r="12" stroke="black" fill="white"/>
<path d="M1108,320 L1132,320 M1120,308 L1120,332 " stroke="black"/>
<path d="M1184,320 L1184,448 " stroke="black"/>
<circle cx="1184" cy="320" r="12" stroke="none" fill="black"/>
<circle cx="1184" cy="448" r="12" stroke="black" fill="white"/>
<path d="M1172,448 L1196,448 M1184,436 L1184,460 " stroke="black"/>
<path d="M452,40 L452,32 L1212,32 L1212,40 " stroke="black" fill="none"/>
<path d="M452,504 L452,512 L1212,512 L1212,504 " stroke="black" fill="none"/>
<rect x="1296" y="240" width="32" height="32" stroke="black" fill="white"/>
<text dominant-baseline="central" text-anchor="middle" font-family="monospace" font-size="30" x="1312" y="256">H</text>
<path d="M1312,64 L1312,192 " stroke="black"/>
<circle cx="1312" cy="64" r="12" stroke="none" fill="black"/>
<circle cx="1312" cy="192" r="12" stroke="black" fill="white"/>
<path d="M1300,192 L1324,192 M1312,180 L1312,204 " stroke="black"/>
<path d="M1376,192 L1376,384 " stroke="black"/>
<circle cx="1376" cy="384" r="12" stroke="none" fill="black"/>
<circle cx="1376" cy="192" r="12" stroke="black" fill="white"/>
<path d="M1364,192 L1388,192 M1376,180 L1376,204 " stroke="black"/>
<path d="M1440,128 L1440,320 " stroke="black"/>
<circle cx="1440" cy="128" r="12" stroke="none" fill="black"/>
<circle cx="1440" cy="320" r="12" stroke="black" fill="white"/>
<path d="M1428,320 L1452,320 M1440,308 L1440,332 " stroke="black"/>
<path d="M1504,320 L1504,448 " stroke="black"/>
<circle cx="1504" cy="448" r="12" stroke="none" fill="black"/>
<circle cx="1504" cy="320" r="12" stroke="black" fill="white"/>
<path d="M1492,320 L1516,320 M1504,308 L1504,332 " stroke="black"/>
<path d="M1284,40 L1284,32 L1532,32 L1532,40 " stroke="black" fill="none"/>
<path d="M1284,504 L1284,512 L1532,512 L1532,504 " stroke="black" fill="none"/>
<rect x="1616" y="240" width="32" height="32" stroke="black" fill="black"/>
<text dominant-baseline="central" text-anchor="middle" font-family="monospace" font-size="30" x="1632" y="256" fill="white">M</text>
<text text-anchor="middle" font-family="monospace" font-size="8" x="1632" y="236">rec[0]</text>
<rect x="1616" y="176" width="32" height="32" stroke="black" fill="black"/>
<text dominant-baseline="central" text-anchor="middle" font-family="monospace" font-size="30" x="1632" y="192" fill="white">M</text>
<text text-anchor="middle" font-family="monospace" font-size="8" x="1632" y="172">rec[1]</text>
<rect x="1616" y="304" width="32" height="32" stroke="black" fill="black"/>
<text dominant-baseline="central" text-anchor="middle" font-family="monospace" font-size="30" x="1632" y="320" fill="white">M</text>
<text text-anchor="middle" font-family="monospace" font-size="8" x="1632" y="300">rec[2]</text>
<rect x="1680" y="240" width="288" height="32" stroke="black" fill="lightgray"/>
<text dominant-baseline="central" text-anchor="middle" font-family="monospace" font-size="16" x="1824" y="256">DETECTOR</text>
<text dominant-baseline="hanging" text-anchor="middle" font-family="monospace" font-size="8" x="1824" y="276">coords=(0.5,1,5,1)</text>
<text text-anchor="middle" font-family="monospace" font-size="8" x="1824" y="236">D0 = rec[0]</text>
<rect x="2000" y="240" width="288" height="32" stroke="black" fill="lightgray"/>
<text dominant-baseline="central" text-anchor="middle" font-family="monospace" font-size="16" x="2144" y="256">DETECTOR</text>
<text dominant-baseline="hanging" text-anchor="middle" font-family="monospace" font-size="8" x="2144" y="276">coords=(0.5,1,5,1)</text>
<text text-anchor="middle" font-family="monospace" font-size="8" x="2144" y="236">D1 = rec[0]</text>
<path d="M1604,40 L1604,32 L2300,32 L2300,40 " stroke="black" fill="none"/>
<path d="M1604,504 L1604,512 L2300,512 L2300,504 " stroke="black" fill="none"/>
<rect x="2320" y="240" width="32" height="32" stroke="black" fill="black"/>
<text dominant-baseline="central" text-anchor="middle" font-family="monospace" font-size="30" x="2336" y="256" fill="white">R</text>
<rect x="2320" y="176" width="32" height="32" stroke="black" fill="black"/>
<text dominant-baseline="central" text-anchor="middle" font-family="monospace" font-size="30" x="2336" y="192" fill="white">R</text>
<rect x="2320" y="304" width="32" height="32" stroke="black" fill="black"/>
<text dominant-baseline="central" text-anchor="middle" font-family="monospace" font-size="30" x="2336" y="320" fill="white">R</text>
<rect x="2384" y="240" width="32" height="32" stroke="black" fill="white"/>
<text dominant-baseline="central" text-anchor="middle" font-family="monospace" font-size="30" x="2400" y="256">H</text>
<path d="M2308,40 L2308,32 L2428,32 L2428,40 " stroke="black" fill="none"/>
<path d="M2308,504 L2308,512 L2428,512 L2428,504 " stroke="black" fill="none"/>
<path d="M2464,64 L2464,192 " stroke="black"/>
<circle cx="2464" cy="192" r="12" stroke="none" fill="black"/>
<circle cx="2464" cy="64" r="12" stroke="black" fill="white"/>
<path d="M2452,64 L2476,64 M2464,52 L2464,76 " stroke="black"/>
<path d="M2528,192 L2528,256 " stroke="black"/>
<circle cx="2528" cy="256" r="12" stroke="none" fill="black"/>
<circle cx="2528" cy="192" r="12" stroke="black" fill="white"/>
<path d="M2516,192 L2540,192 M2528,180 L2528,204 " stroke="black"/>
<path d="M2592,64 L2592,192 " stroke="black"/>
<circle cx="2592" cy="192" r="12" stroke="none" fill="black"/>
<circle cx="2592" cy="64" r="12" stroke="black" fill="white"/>
<path d="M2580,64 L2604,64 M2592,52 L2592,76 " stroke="black"/>
<path d="M2656,192 L2656,384 " stroke="black"/>
<circle cx="2656" cy="192" r="12" stroke="none" fill="black"/>
<circle cx="2656" cy="384" r="12" stroke="black" fill="white"/>
<path d="M2644,384 L2668,384 M2656,372 L2656,396 " stroke="black"/>
<path d="M2720,192 L2720,256 " stroke="black"/>
<circle cx="2720" cy="256" r="12" stroke="none" fill="black"/>
<circle cx="2720" cy="192" r="12" stroke="black" fill="white"/>
<path d="M2708,192 L2732,192 M2720,180 L2720,204 " stroke="black"/>
<path d="M2784,192 L2784,384 " stroke="black"/>
<circle cx="2784" cy="192" r="12" stroke="none" fill="black"/>
<circle cx="2784" cy="384" r="12" stroke="black" fill="white"/>
<path d="M2772,384 L2796,384 M2784,372 L2784,396 " stroke="black"/>
<path d="M2848,128 L2848,320 " stroke="black"/>
<circle cx="2848" cy="320" r="12" stroke="none" fill="black"/>
<circle cx="2848" cy="128" r="12" stroke="black" fill="white"/>
<path d="M2836,128 L2860,128 M2848,116 L2848,140 " stroke="black"/>
<path d="M2912,256 L2912,320 " stroke="black"/>
<circle cx="2912" cy="256" r="12" stroke="none" fill="black"/>
<circle cx="2912" cy="320" r="12" stroke="black" fill="white"/>
<path d="M2900,320 L2924,320 M2912,308 L2912,332 " stroke="black"/>
<path d="M2976,128 L2976,320 " stroke="black"/>
<circle cx="2976" cy="320" r="12" stroke="none" fill="black"/>
<circle cx="2976" cy="128" r="12" stroke="black" fill="white"/>
<path d="M2964,128 L2988,128 M2976,116 L2976,140 " stroke="black"/>
<path d="M3040,320 L3040,448 " stroke="black"/>
<circle cx="3040" cy="320" r="12" stroke="none" fill="black"/>
<circle cx="3040" cy="448" r="12" stroke="black" fill="white"/>
<path d="M3028,448 L3052,448 M3040,436 L3040,460 " stroke="black"/>
<path d="M3104,256 L3104,320 " stroke="black"/>
<circle cx="3104" cy="256" r="12" stroke="none" fill="black"/>
<circle cx="3104" cy="320" r="12" stroke="black" fill="white"/>
<path d="M3092,320 L3116,320 M3104,308 L3104,332 " stroke="black"/>
<path d="M3168,320 L3168,448 " stroke="black"/>
<circle cx="3168" cy="320" r="12" stroke="none" fill="black"/>
<circle cx="3168" cy="448" r="12" stroke="black" fill="white"/>
<path d="M3156,448 L3180,448 M3168,436 L3168,460 " stroke="black"/>
<path d="M2436,40 L2436,32 L3196,32 L3196,40 " stroke="black" fill="none"/>
<path d="M2436,504 L2436,512 L3196,512 L3196,504 " stroke="black" fill="none"/>
<rect x="3280" y="240" width="32" height="32" stroke="black" fill="white"/>
<text dominant-baseline="central" text-anchor="middle" font-family="monospace" font-size="30" x="3296" y="256">H</text>
<path d="M3296,64 L3296,192 " stroke="black"/>
<circle cx="3296" cy="64" r="12" stroke="none" fill="black"/>
<circle cx="3296" cy="192" r="12" stroke="black" fill="white"/>
<path d="M3284,192 L3308,192 M3296,180 L3296,204 " stroke="black"/>
<path d="M3360,192 L3360,384 " stroke="black"/>
<circle cx="3360" cy="384" r="12" stroke="none" fill="black"/>
<circle cx="3360" cy="192" r="12" stroke="black" fill="white"/>
<path d="M3348,192 L3372,192 M3360,180 L3360,204 " stroke="black"/>
<path d="M3424,128 L3424,320 " stroke="black"/>
<circle cx="3424" cy="128" r="12" stroke="none" fill="black"/>
<circle cx="3424" cy="320" r="12" stroke="black" fill="white"/>
<path d="M3412,320 L3436,320 M3424,308 L3424,332 " stroke="black"/>
<path d="M3488,320 L3488,448 " stroke="black"/>
<circle cx="3488" cy="448" r="12" stroke="none" fill="black"/>
<circle cx="3488" cy="320" r="12" stroke="black" fill="white"/>
<path d="M3476,320 L3500,320 M3488,308 L3488,332 " stroke="black"/>
<path d="M3268,40 L3268,32 L3516,32 L3516,40 " stroke="black" fill="none"/>
<path d="M3268,504 L3268,512 L3516,512 L3516,504 " stroke="black" fill="none"/>
<rect x="3600" y="240" width="32" height="32" stroke="black" fill="black"/>
<text dominant-baseline="central" text-anchor="middle" font-family="monospace" font-size="30" x="3616" y="256" fill="white">M</text>
<text text-anchor="middle" font-family="monospace" font-size="8" x="3616" y="236">rec[3]</text>
<rect x="3600" y="176" width="32" height="32" stroke="black" fill="black"/>
<text dominant-baseline="central" text-anchor="middle" font-family="monospace" font-size="30" x="3616" y="192" fill="white">M</text>
<text text-anchor="middle" font-family="monospace" font-size="8" x="3616" y="172">rec[4]</text>
<rect x="3600" y="304" width="32" height="32" stroke="black" fill="black"/>
<text dominant-baseline="central" text-anchor="middle" font-family="monospace" font-size="30" x="3616" y="320" fill="white">M</text>
<text text-anchor="middle" font-family="monospace" font-size="8" x="3616" y="300">rec[5]</text>
<rect x="3664" y="240" width="288" height="32" stroke="black" fill="lightgray"/>
<text dominant-baseline="central" text-anchor="middle" font-family="monospace" font-size="16" x="3808" y="256">DETECTOR</text>
<text dominant-baseline="hanging" text-anchor="middle" font-family="monospace" font-size="8" x="3808" y="276">coords=(0.5,1,11,1)</text>
<text text-anchor="middle" font-family="monospace" font-size="8" x="3808" y="236">D2 = rec[0]*rec[3]</text>
<rect x="3664" y="176" width="352" height="32" stroke="black" fill="lightgray"/>
<text dominant-baseline="central" text-anchor="middle" font-family="monospace" font-size="16" x="3840" y="192">DETECTOR</text>
<text dominant-baseline="hanging" text-anchor="middle" font-family="monospace" font-size="8" x="3840" y="212">coords=(0,1,11,2)</text>
<text text-anchor="middle" font-family="monospace" font-size="8" x="3840" y="172">D3 = rec[1]*rec[2]*rec[4]*rec[5]</text>
<path d="M3588,40 L3588,32 L4028,32 L4028,40 " stroke="black" fill="none"/>
<path d="M3588,504 L3588,512 L4028,512 L4028,504 " stroke="black" fill="none"/>
</svg>